Coordinates
version=1
nRows=4
nColumns=63
inDegrees=yes

Units are S.I. units (second, meters, Newtons, ...)
If the header above contains a line with 'inDegrees', this indicates whether rotational values are in degrees (yes) or radians (no).

endheader
time	pelvis_tilt	pelvis_list	pelvis_rotation	pelvis_tx	pelvis_ty	pelvis_tz	hip_flexion_r	hip_adduction_r	hip_rotation_r	knee_angle_r	knee_angle_r_beta	ankle_angle_r	subtalar_angle_r	mtp_angle_r	hip_flexion_l	hip_adduction_l	hip_rotation_l	knee_angle_l	knee_angle_l_beta	ankle_angle_l	subtalar_angle_l	mtp_angle_l	L5_S1_Flex_Ext	L5_S1_Lat_Bending	L5_S1_axial_rotation	L4_L5_Flex_Ext	L4_L5_Lat_Bending	L4_L5_axial_rotation	L3_L4_Flex_Ext	L3_L4_Lat_Bending	L3_L4_axial_rotation	L2_L3_Flex_Ext	L2_L3_Lat_Bending	L2_L3_axial_rotation	L1_L2_Flex_Ext	L1_L2_Lat_Bending	L1_L2_axial_rotation	L1_T12_Flex_Ext	L1_T12_Lat_Bending	L1_T12_axial_rotation	Abs_r3	Abs_r2	Abs_r1	Abs_t1	Abs_t2	neck_flexion	neck_bending	neck_rotation	arm_flex_r	arm_add_r	arm_rot_r	elbow_flex_r	pro_sup_r	wrist_flex_r	wrist_dev_r	arm_flex_l	arm_add_l	arm_rot_l	elbow_flex_l	pro_sup_l	wrist_flex_l	wrist_dev_l
      5.48936170	     -2.15990973	     -4.44097400	    107.93200466	      0.07440440	      0.46676415	      0.83616204	      3.03605238	      1.83965768	    -14.61051204	      3.20937958	      0.05601424	     29.08573618	     11.10106245	      0.00000000	     10.73919469	     -0.84472250	      3.87341970	     12.86428021	      0.22452405	     29.56716320	     13.39862038	      0.00000000	     -0.00420383	     -0.04570906	     -1.31619058	     -0.00780693	     -0.06079304	     -1.39845249	     -0.00690647	     -0.11113700	     -1.39845249	     -0.00480455	     -0.11113700	     -1.15166675	     -0.00390367	     -0.09320991	     -1.06940484	     -0.00240207	     -0.07080333	     -0.98714293	     -0.03002751	     -0.51706997	     -7.32025712	      0.00000000	      0.00000000	     13.61446830	     -3.52991285	      8.91956641	      1.51247347	    -12.19952822	     24.27224461	     23.84938517	     76.20293200	    -11.12324856	      0.51282770	     -2.48573398	    -16.19529607	     25.25972388	     74.47971230	     88.54160780	     -7.70728630	     17.96402032
      5.51063830	     -2.10630388	     -4.36617210	    107.83827569	      0.07425497	      0.46706496	      0.83539674	      2.87911778	      1.92717799	    -14.44549251	      3.10100273	      0.05412271	     28.95682446	     11.06541858	      0.00000000	     10.51439230	     -0.93051588	      3.92666576	     12.64763887	      0.22074294	     29.52407047	     13.09964671	      0.00000000	     -0.00522882	     -0.03667702	     -1.33375742	     -0.00971044	     -0.04878044	     -1.41711726	     -0.00859042	     -0.08917651	     -1.41711726	     -0.00597601	     -0.08917651	     -1.16703774	     -0.00485548	     -0.07479178	     -1.08367790	     -0.00298775	     -0.05681270	     -1.00031807	     -0.03734892	     -0.41489778	     -7.41795865	      0.00000000	      0.00000000	     14.55207387	     -3.82091888	      9.04176695	      1.68636666	    -12.36006978	     24.94486661	     23.40762679	     75.18539884	    -10.98090653	      0.21555962	     -2.53721625	    -16.15965784	     25.29030886	     74.23149680	     88.64968166	     -7.96824356	     17.56387545
      5.53191489	     -2.04278279	     -4.46273618	    108.44259028	      0.07317280	      0.46687924	      0.83474277	      2.80783644	      1.97043270	    -14.68986795	      2.90699212	      0.05073658	     28.93173623	     10.69854512	      0.00000000	     10.67808405	     -0.85770047	      4.45242613	     12.67724703	      0.22125970	     29.73743039	     12.98219055	      0.00000000	      0.02436964	     -0.03486898	     -1.55923981	      0.04525687	     -0.04637575	     -1.65669230	      0.04003689	     -0.08478045	     -1.65669230	      0.02785207	     -0.08478045	     -1.36433483	      0.02262965	     -0.07110483	     -1.26688235	      0.01392482	     -0.05401206	     -1.16942986	      0.17406994	     -0.39444492	     -8.67202405	      0.00000000	      0.00000000	     15.51063240	     -3.91827832	      9.60873841	      2.10068707	    -12.44964165	     26.23614582	     22.78082590	     74.68510873	    -10.49227135	     -0.31619334	     -3.22913058	    -16.10677551	     24.52825183	     74.49918598	     88.72127230	     -8.50993444	     17.65378854
      5.55319149	     -1.95563251	     -4.41157942	    108.70960198	      0.07234588	      0.46686768	      0.83427241	      2.65344738	      2.07064848	    -14.72782103	      2.76147311	      0.04819680	     28.86161453	     10.47608514	      0.00000000	     10.60957406	     -0.86715675	      4.95526218	     12.50602559	      0.21827132	     30.01378609	     12.58835340	      0.00000000	      0.02853555	     -0.01857775	     -1.69061308	      0.05299337	     -0.02470840	     -1.79627639	      0.04688106	     -0.04516993	     -1.79627639	      0.03261328	     -0.04516993	     -1.47928644	      0.02649811	     -0.03788374	     -1.37362312	      0.01630521	     -0.02877693	     -1.26795981	      0.20382658	     -0.21015517	     -9.40268275	      0.00000000	      0.00000000	     16.37382891	     -4.09764965	     10.19673002	      2.36461300	    -12.71740821	     27.76456373	     22.59898268	     73.16559249	    -10.65615987	     -0.83951495	     -3.65637231	    -15.96817623	     23.95754110	     74.59316826	     88.75897136	     -8.57328226	     17.70664448
